# xmcd
#
# Track frame offsets: 
#        150
#        825
#        15147
#        32125
#        51782
#        67916
#        82954
#        100534
#        116841
#        130680
#        148426
#
# Disc length: 2204 seconds
#
# Revision: 0
# Processed by: cddbd v1.5.2PL0 Copyright (c) Steve Scherf et al.
# Submitted via: ExactAudioCopyFreeDBPlugin 1.0
#
DISCID=7c089a0b
DTITLE=Boggie - All is one is all
DYEAR=2014
DGENRE=
TTITLE0=All is one is all (intro)
TTITLE1=All is one is all
TTITLE2=Fearless
TTITLE3=Mon bagage
TTITLE4=Utazom
TTITLE5=Camouflage
TTITLE6=Égbolt feat. Milán Szakonyi
TTITLE7=Say something
TTITLE8=Wars for nothing
TTITLE9=Színes minden
TTITLE10=Szabadidő
EXTD=
EXTT0=
EXTT1=
EXTT2=
EXTT3=
EXTT4=
EXTT5=
EXTT6=
EXTT7=
EXTT8=
EXTT9=
EXTT10=
PLAYORDER=
